PathFileType	4	(X/Y/Z)	SUBJ89_0_static_RCNL2025.trc
DataRate	CameraRate	NumFrames	NumMarkers	Units	OrigDataRate	OrigDataStartFrame	OrigNumFrames
100	100	4	25	mm	100	167	267
Frame#	Time	R_Shoulder			L_Shoulder			C7			J_Notch			R_Elbow			L_Elbow			R_Wrist			L_Wrist			R_Asis			L_Asis			Sacral			Thoracic			Sternum			R_Thigh_Lateral			R_Knee_Lateral			R_Shank_Lateral			R_Ankle_Lateral			R_Heel			R_Toe			L_Thigh_Lateral			L_Knee_Lateral			L_Shank_Lateral			L_Ankle_Lateral			L_Heel			L_Toe		
		X1	Y1	Z1	X2	Y2	Z2	X3	Y3	Z3	X4	Y4	Z4	X5	Y5	Z5	X6	Y6	Z6	X7	Y7	Z7	X8	Y8	Z8	X9	Y9	Z9	X10	Y10	Z10	X11	Y11	Z11	X12	Y12	Z12	X13	Y13	Z13	X14	Y14	Z14	X15	Y15	Z15	X16	Y16	Z16	X17	Y17	Z17	X18	Y18	Z18	X19	Y19	Z19	X20	Y20	Z20	X21	Y21	Z21	X22	Y22	Z22	X23	Y23	Z23	X24	Y24	Z24	X25	Y25	Z25
167	1.66000000	-225.202499	1452.960327	-42.975525	-252.449936	1451.269897	-431.164185	-293.536346	1515.585938	-243.769104	-161.909912	1401.721802	-237.889252	-246.413712	1188.411865	131.050644	-221.550552	1186.622314	-606.816895	-159.303955	959.598236	246.116318	-115.658340	976.873108	-732.845673	-148.541565	1002.206787	-108.859253	-141.404602	1007.438293	-350.266083	-316.051361	1050.852295	-221.044556	-360.923889	1334.643799	-228.848602	-122.626205	1254.943726	-247.140793	-211.462006	619.558899	-36.729832	-229.553879	501.418365	-89.253090	-282.789581	283.831543	-32.050819	-317.061890	74.822136	-95.874344	-352.081635	64.246414	-141.764450	-156.944962	35.883221	-101.021454	-194.931900	578.172791	-446.349884	-208.933395	493.162018	-373.689941	-266.943939	267.050018	-428.075012	-288.189758	67.464714	-366.132324	-325.053436	72.506210	-317.400696	-131.267181	35.499989	-360.274353
168	1.67000000	-225.187943	1452.987427	-42.992542	-252.534927	1451.241333	-431.119324	-293.506073	1515.614990	-243.697998	-161.927277	1401.729736	-237.917648	-246.487106	1188.477417	131.210800	-221.647690	1186.695923	-606.870544	-159.400352	959.750183	246.307144	-115.791599	976.903412	-732.907410	-148.643600	1002.199890	-108.915627	-141.549454	1007.413574	-350.283539	-316.223816	1050.857422	-221.035461	-361.032806	1334.696289	-228.763290	-122.646149	1254.900757	-247.207993	-211.578430	619.507141	-36.691578	-229.714920	501.458801	-89.258186	-282.886780	283.836090	-32.009071	-317.054260	74.798752	-95.860893	-352.073944	64.240913	-141.772842	-156.952164	35.858509	-101.028984	-195.109650	578.182739	-446.302277	-209.107285	493.140717	-373.707642	-267.078125	267.082306	-428.056946	-288.255707	67.516479	-366.073914	-324.907715	72.380707	-317.548340	-131.294724	35.560234	-360.228302
169	1.68000000	-225.186966	1452.989258	-42.995941	-252.602142	1451.240845	-431.213898	-293.610077	1515.642090	-243.755432	-162.026154	1401.742310	-237.942749	-246.587463	1188.582764	131.279312	-221.774017	1186.720581	-606.940247	-159.485016	959.885864	246.464745	-115.964844	976.960693	-733.018677	-148.699326	1002.202087	-108.929489	-141.630341	1007.428711	-350.359985	-316.244446	1050.853027	-221.041275	-361.045654	1334.771362	-228.762802	-122.774849	1254.792480	-247.211411	-211.643448	619.496704	-36.753723	-229.802704	501.459961	-89.334137	-282.906342	283.831268	-32.013794	-317.077515	74.812866	-95.870872	-352.097198	64.243515	-141.736588	-156.895325	35.850204	-101.055298	-195.242554	578.137390	-446.262024	-209.126297	493.115234	-373.698181	-267.194458	267.033264	-428.113159	-288.301636	67.442413	-366.046112	-325.010864	72.377304	-317.428650	-131.301483	35.469292	-360.226379
170	1.69000000	-225.230545	1452.977051	-43.058640	-252.657135	1451.244019	-431.237274	-293.619385	1515.620972	-243.760406	-161.966263	1401.705322	-238.110275	-246.594437	1188.660400	131.387390	-221.853027	1186.700684	-606.945251	-159.603523	960.034485	246.638214	-116.080402	976.947784	-733.107941	-148.850250	1002.188660	-108.971046	-141.773544	1007.453796	-350.397430	-316.396149	1050.882324	-221.039062	-361.113190	1334.694458	-228.833038	-122.984390	1254.808105	-247.256561	-211.684402	619.518188	-36.774952	-229.808319	501.435791	-89.337257	-282.949829	283.793762	-32.084156	-317.107025	74.716652	-95.842972	-352.112854	64.148010	-141.730453	-156.978836	35.821995	-100.999352	-195.346390	578.165894	-446.282013	-209.277222	493.159424	-373.742188	-267.204224	267.000122	-428.116272	-288.265289	67.410431	-365.990234	-325.037689	72.351318	-317.466919	-131.288773	35.407833	-360.254883
